<svg version="1" xmlns="http://www.w3.org/2000/svg" width="1365.333" height="1365.333" viewBox="0 0 1024.000000 1024.000000"><path d="M64 512v448h896V64H64v448zm832 0v384H128V128h768v384z"/><path d="M697 178.1c-5.4 2.2-38.2 9.8-48.5 11.3-23.6 3.4-36.6 3.6-220.6 3.6H244v9.8l12.3.4c10.2.4 13.2.9 18.5 3 9.3 3.8 16.8 8.6 23.9 15.2 7.3 6.8 10.6 12.5 13.4 23.4 1.9 7.3 1.9 13.7 1.9 265.6 0 284.6.4 263.8-6.3 277.5-4.4 9.1-16.9 21.7-25.7 25.9-9.3 4.5-17 6.2-28.2 6.2H244v10h235.4c129.5 0 235.7-.3 235.9-.8.6-.8 41.7-182.8 41.7-184.3 0-.5-2.2-.9-4.8-.9h-4.8l-2.3 7.2c-20.4 64.2-63 112-115.6 129.6-11.3 3.8-25.2 6.8-37.7 8.1-5.9.7-35.6 1.1-75.3 1.1H451V534.9l66.3.3c64.8.4 66.4.4 74.1 2.6 27.1 7.6 46.9 27.3 53.6 53.6 1.1 4.3 2.3 12.7 2.6 18.7l.7 10.9h8.7V410h-8.7l-.6 10.7c-1.1 18.8-5.8 32.6-15.7 45.6-12.6 16.7-31.3 26.9-54 29.7-4.9.6-33.5 1-67.7 1H451V232.9l84.3.4c83.7.3 84.2.3 92.2 2.5 11.1 3.2 26.8 11.1 34.7 17.6 19.1 15.8 28.4 36.7 29.5 66.6.4 9 1 14.8 1.7 15.2.6.4 2.8.8 4.9.8h3.7v-79.5c0-63-.3-79.5-1.2-79.4-.7 0-2.4.5-3.8 1z"/></svg>