<svg xmlns="http://www.w3.org/2000/svg" viewBox="0 0 896 896"><defs><style>.a{fill:none;stroke:#000;stroke-miterlimit:10;stroke-width:64px;}</style></defs><title>logo--no-margin--light</title><path d="M256.31,820.36a55.12,55.12,0,0,0,40.44-16.81,58.52,58.52,0,0,0,17.72-40.44V256.92q-1.83-23.63-13.63-34.53-21.81-20-44.53-20H244.5V193.3H592.56q44.51,0,73.61-6.82T701.61,177V336l-9.09-.9v-10q0-56.34-41.8-80-20-11.81-47.26-12.73H450.79V496.84h120q33.6-.9,55.43-23.18t21.81-55V410.5h9.09V620.43H648v-7.27q0-33.61-21.35-55.44T572.56,535H450.79V790.37H569.84q66.31,0,111.32-38.17T748,644.06h9L715.2,829.45H244.5v-9.09Z" transform="translate(-64 -64)"/><rect class="a" x="32" y="32" width="832" height="832"/></svg>