<svg xmlns="http://www.w3.org/2000/svg" viewBox="0 0 225 33"><defs><style>.a{fill:#fff;}</style></defs><title>logo--big--dark</title><path class="a" d="M29.83,5.17q4.62,4.23,4.63,11.52T29.83,28.21c-3.1,2.82-7.29,4.23-12.6,4.23H.89V32h.59a2.73,2.73,0,0,0,2-.83,2.9,2.9,0,0,0,.87-2V4a2.3,2.3,0,0,0-.87-1.82,3,3,0,0,0-2-.75H.89V.94H17.23C22.54.94,26.73,2.36,29.83,5.17ZM16.64,30.51a9.46,9.46,0,0,0,5.6-1.67,10.46,10.46,0,0,0,3.63-4.79,18.26,18.26,0,0,0,1.25-6.82A22.79,22.79,0,0,0,26.38,11a13.26,13.26,0,0,0-2.09-4.39,9,9,0,0,0-7.65-3.74H11.1V30.51Z"/><path class="a" d="M37,32h.54a2.67,2.67,0,0,0,1.85-.69,2.21,2.21,0,0,0,.76-1.69V8.28a2.21,2.21,0,0,0-.76-1.69,2.68,2.68,0,0,0-1.85-.7H37V5.44H49.8v.45h-.54a2.64,2.64,0,0,0-1.8.68,2.27,2.27,0,0,0-.81,1.66V29.61a2.32,2.32,0,0,0,.81,1.71,2.63,2.63,0,0,0,1.8.67h.54v.45H37Z"/><path class="a" d="M73.79,32.44H52.59V32h.54a2.41,2.41,0,0,0,2.48-2.34V8.23a2.39,2.39,0,0,0-.74-1.66,2.42,2.42,0,0,0-1.74-.68h-.54V5.44H68.43a17.31,17.31,0,0,0,2.66-.22,11.08,11.08,0,0,0,2-.45v7.15h-.45v-.4a4.31,4.31,0,0,0-1.08-3.11,4.15,4.15,0,0,0-3-1.17H62.09V18.18h5.13a3.4,3.4,0,0,0,2.47-1,3.51,3.51,0,0,0,1-2.52v-.31h.45v9.54h-.45v-.32a3.3,3.3,0,0,0-1.58-3.06,3.38,3.38,0,0,0-1.8-.49H62.09V30.64h5.4a7.15,7.15,0,0,0,4.75-1.73,9.65,9.65,0,0,0,2.85-4.75h.41Z"/><path class="a" d="M90.12,32a2.73,2.73,0,0,0,2-.83,2.9,2.9,0,0,0,.87-2V4.09a2.5,2.5,0,0,0-.67-1.71,3.28,3.28,0,0,0-2.21-1h-.58V.94h17.23a16.78,16.78,0,0,0,3.65-.33,15.62,15.62,0,0,0,1.75-.48V8l-.45,0V7.47a4.18,4.18,0,0,0-2.07-4,4.84,4.84,0,0,0-2.34-.63H99.75V16h5.94a3.82,3.82,0,0,0,2.75-1.14,3.76,3.76,0,0,0,1.08-2.73v-.4H110V22.09h-.45v-.36a3.74,3.74,0,0,0-3.74-3.87h-6V30.51h5.9a8.21,8.21,0,0,0,5.51-1.89,11.15,11.15,0,0,0,3.31-5.36h.45l-2.07,9.18H89.54V32Z"/><path class="a" d="M144,9q4.09,3.59,4.09,9.92T144,28.87q-4.1,3.57-11.34,3.57H117.44V32H118a2.4,2.4,0,0,0,1.76-.72,2.5,2.5,0,0,0,.76-1.71V8.23a2.51,2.51,0,0,0-.81-1.66A2.46,2.46,0,0,0,118,5.89h-.54V5.44h15.21Q139.89,5.44,144,9ZM132.11,30.64a8,8,0,0,0,6.68-3.1c1.64-2.07,2.45-4.93,2.45-8.6s-.81-6.53-2.45-8.61a8,8,0,0,0-6.68-3.13H127V30.64Z"/><path class="a" d="M150.6,32h.54A2.67,2.67,0,0,0,153,31.3a2.21,2.21,0,0,0,.76-1.69V8.28A2.21,2.21,0,0,0,153,6.59a2.68,2.68,0,0,0-1.85-.7h-.54V5.44h12.78v.45h-.54a2.64,2.64,0,0,0-1.8.68,2.27,2.27,0,0,0-.81,1.66V29.61a2.32,2.32,0,0,0,.81,1.71,2.63,2.63,0,0,0,1.8.67h.54v.45H150.6Z"/><path class="a" d="M191,11.83v-.4a4.23,4.23,0,0,0-1.08-3.06,4.14,4.14,0,0,0-3-1.17h-5.22V29.65a2.36,2.36,0,0,0,.77,1.67,2.41,2.41,0,0,0,1.71.67h.49v.45H172.2V32h.45a2.48,2.48,0,0,0,1.76-.67,2.24,2.24,0,0,0,.72-1.71V7.2H170a4.18,4.18,0,0,0-3.06,1.17,4.23,4.23,0,0,0-1.08,3.06v.4h-.45V4.72a11.68,11.68,0,0,0,2.1.45,17.45,17.45,0,0,0,2.63.23h16.6A15.51,15.51,0,0,0,190,5.11a10.51,10.51,0,0,0,1.46-.39v7.11Z"/><path class="a" d="M224,32h.5v.45H212.16V32h.45a2.48,2.48,0,0,0,1.76-.67,2.24,2.24,0,0,0,.72-1.71V19.89H203.25v9.72A2.46,2.46,0,0,0,205.73,32h.49v.45H193.8V32h.5a2.43,2.43,0,0,0,1.75-.69,2.28,2.28,0,0,0,.72-1.69V8.28a2.28,2.28,0,0,0-.72-1.69,2.44,2.44,0,0,0-1.75-.7h-.5V5.44h12.42v.45h-.49a2.42,2.42,0,0,0-1.71.68,2.34,2.34,0,0,0-.77,1.66v9.86h11.84V8.28a2.22,2.22,0,0,0-1.22-2.07,2.62,2.62,0,0,0-1.26-.32h-.45V5.44h12.38v.45H224a2.42,2.42,0,0,0-1.71.68,2.39,2.39,0,0,0-.76,1.71V29.65a2.23,2.23,0,0,0,1.21,2A2.61,2.61,0,0,0,224,32Z"/></svg>