<?xml version="1.0" encoding="utf-8"?>
<!-- Generator: Adobe Illustrator 23.0.1, SVG Export Plug-In . SVG Version: 6.00 Build 0)  -->
<svg version="1.1" id="Ebene_1" xmlns="http://www.w3.org/2000/svg" xmlns:xlink="http://www.w3.org/1999/xlink" x="0px" y="0px"
	 viewBox="0 0 24 24" style="enable-background:new 0 0 24 24;" xml:space="preserve">
<style type="text/css">
	.st0{fill:none;}
	.st1{fill:#A9A9A9;}
</style>
<path class="st0" d="M0,0h24v24H0V0z"/>
<path class="st1" d="M12.6,10c-0.9-2.7-3.8-4.5-6.9-3.9c-2.3,0.5-4.2,2.3-4.6,4.6C0.3,14.6,3.3,18,7,18c2.6,0,4.8-1.7,5.6-4H17v2
	c0,1.1,0.9,2,2,2s2-0.9,2-2v-2c1.1,0,2-0.9,2-2s-0.9-2-2-2H12.6z M7,14c-1.1,0-2-0.9-2-2s0.9-2,2-2s2,0.9,2,2S8.1,14,7,14z"/>
</svg>
