<svg xmlns="http://www.w3.org/2000/svg" viewBox="0 0 175.49 31.88"><defs><style>.a{fill:none;stroke:#000;stroke-miterlimit:10;stroke-width:2.28px;}</style></defs><title>ver-1</title><path d="M8.1,27.77a2,2,0,0,0,1.44-.6,2.06,2.06,0,0,0,.63-1.44v-18A1.77,1.77,0,0,0,9.69,6.5,2.34,2.34,0,0,0,8.1,5.79H7.68V5.46H20.07a11.83,11.83,0,0,0,2.61-.24A11.36,11.36,0,0,0,24,4.88v5.66l-.33,0v-.36A3,3,0,0,0,22.14,7.3a3.51,3.51,0,0,0-1.69-.45H15v9.41h4.27a2.75,2.75,0,0,0,2-.82,2.68,2.68,0,0,0,.78-2v-.29h.32v7.47H22V20.4a2.68,2.68,0,0,0-2.69-2.78H15V26.7h4.24a5.94,5.94,0,0,0,4-1.35A8.06,8.06,0,0,0,25.6,21.5h.32l-1.49,6.59H7.68v-.32Z" transform="translate(-1.26 -0.86)"/><rect class="a" x="1.14" y="1.14" width="29.6" height="29.6"/><path d="M46.17,22.36H39.35v9.78h-2V8.68H45a8.71,8.71,0,0,1,5.86,1.81A6.36,6.36,0,0,1,53,15.58a6.38,6.38,0,0,1-1.32,4,6.78,6.78,0,0,1-3.55,2.38l5.87,10v.21H51.84Zm-6.82-1.68h6.08a5.62,5.62,0,0,0,4-1.42A4.81,4.81,0,0,0,51,15.58a4.82,4.82,0,0,0-1.58-3.86,6.56,6.56,0,0,0-4.43-1.37H39.35Z" transform="translate(-1.26 -0.86)"/><path d="M64.65,32.46a7.59,7.59,0,0,1-4-1.1,7.45,7.45,0,0,1-2.8-3.05,9.61,9.61,0,0,1-1-4.39v-.69a10.25,10.25,0,0,1,1-4.53,7.79,7.79,0,0,1,2.71-3.17,6.69,6.69,0,0,1,3.77-1.15,6.28,6.28,0,0,1,5,2.17,8.79,8.79,0,0,1,1.86,5.92v1.08H58.75v.37a7.32,7.32,0,0,0,1.7,4.94,5.42,5.42,0,0,0,4.28,2,6.37,6.37,0,0,0,2.73-.56,6,6,0,0,0,2.15-1.81l1.21.92A7,7,0,0,1,64.65,32.46ZM64.29,16a4.82,4.82,0,0,0-3.66,1.6,7.34,7.34,0,0,0-1.81,4.28H69.27v-.2a6.42,6.42,0,0,0-1.43-4.1A4.45,4.45,0,0,0,64.29,16Z" transform="translate(-1.26 -0.86)"/><path d="M74.17,23.26A10.55,10.55,0,0,1,76,16.79a5.83,5.83,0,0,1,4.93-2.41,6.07,6.07,0,0,1,5.38,2.79V7.39h1.92V32.14H86.4l-.08-2.32a6.22,6.22,0,0,1-5.44,2.64A5.81,5.81,0,0,1,76,30a10.55,10.55,0,0,1-1.85-6.55Zm2,.34a9.12,9.12,0,0,0,1.34,5.26,4.33,4.33,0,0,0,3.77,1.92,5.19,5.19,0,0,0,5.06-3.14V19.46a5.15,5.15,0,0,0-5-3.4A4.36,4.36,0,0,0,77.48,18,9.7,9.7,0,0,0,76.12,23.6Z" transform="translate(-1.26 -0.86)"/><path d="M104.29,32.14a9.14,9.14,0,0,1-.37-2.44,6.77,6.77,0,0,1-2.59,2,7.92,7.92,0,0,1-3.33.72,5.84,5.84,0,0,1-4.06-1.4,4.58,4.58,0,0,1-1.56-3.55,4.67,4.67,0,0,1,2.12-4A10.23,10.23,0,0,1,100.4,22h3.5V20a3.8,3.8,0,0,0-1.15-2.94A4.74,4.74,0,0,0,99.39,16a5.28,5.28,0,0,0-3.34,1,3.06,3.06,0,0,0-1.32,2.48l-1.93,0a4.49,4.49,0,0,1,1.93-3.6,7.49,7.49,0,0,1,4.76-1.52,6.82,6.82,0,0,1,4.6,1.46,5.23,5.23,0,0,1,1.73,4.07v8.25a10.29,10.29,0,0,0,.53,3.78v.2Zm-6.06-1.39a6.52,6.52,0,0,0,3.46-.93,5.56,5.56,0,0,0,2.21-2.5V23.48h-3.45a8.76,8.76,0,0,0-4.51,1.06,3.18,3.18,0,0,0-1.63,2.81,3.12,3.12,0,0,0,1.09,2.43A4.09,4.09,0,0,0,98.23,30.75Z" transform="translate(-1.26 -0.86)"/><path d="M115.1,23.36l-2.21,2.12v6.66H111V7.39h1.93V23.23l1.82-2,6.67-6.56h2.44l-7.4,7.35,8,10.09h-2.3Z" transform="translate(-1.26 -0.86)"/><path d="M130.12,10.24V14.7h3.61v1.58h-3.61V27.91a3.62,3.62,0,0,0,.52,2.16,2,2,0,0,0,1.75.71,11.5,11.5,0,0,0,1.56-.16l.08,1.57a6.3,6.3,0,0,1-2.06.27,3.42,3.42,0,0,1-2.88-1.15,5.44,5.44,0,0,1-.91-3.39V16.28H125V14.7h3.2V10.24Z" transform="translate(-1.26 -0.86)"/><path d="M137.61,9.67a1.3,1.3,0,0,1,.35-.92,1.28,1.28,0,0,1,1-.38,1.32,1.32,0,0,1,1,.38,1.34,1.34,0,0,1,0,1.83,1.31,1.31,0,0,1-1,.37,1.27,1.27,0,0,1-1-.37A1.29,1.29,0,0,1,137.61,9.67Zm2.27,22.47H138V14.7h1.93Z" transform="translate(-1.26 -0.86)"/><path d="M144.06,23.16a10.31,10.31,0,0,1,1-4.53,7.45,7.45,0,0,1,2.76-3.13,7.36,7.36,0,0,1,4-1.12,7.16,7.16,0,0,1,5.64,2.44,9.42,9.42,0,0,1,2.16,6.47v.4a10.38,10.38,0,0,1-1,4.56,7.32,7.32,0,0,1-2.75,3.11,7.54,7.54,0,0,1-4.05,1.1A7.17,7.17,0,0,1,146.22,30a9.42,9.42,0,0,1-2.16-6.47Zm1.93.53a7.93,7.93,0,0,0,1.62,5.14,5.48,5.48,0,0,0,8.47,0,8.2,8.2,0,0,0,1.62-5.3v-.37A8.8,8.8,0,0,0,157,19.5a5.92,5.92,0,0,0-2.08-2.57,5.35,5.35,0,0,0-3.06-.91,5.14,5.14,0,0,0-4.2,2A8.13,8.13,0,0,0,146,23.34Z" transform="translate(-1.26 -0.86)"/><path d="M165.44,14.7l.06,3A6.92,6.92,0,0,1,168,15.23a6.32,6.32,0,0,1,3.24-.85A5.23,5.23,0,0,1,175.36,16a7.08,7.08,0,0,1,1.39,4.74V32.14h-1.92V20.68a5.31,5.31,0,0,0-1-3.48,3.89,3.89,0,0,0-3.12-1.14,4.85,4.85,0,0,0-3.16,1.12,6.5,6.5,0,0,0-2,3V32.14H163.6V14.7Z" transform="translate(-1.26 -0.86)"/><path d="M41.58,2.4a2.28,2.28,0,0,1,.72,1.79A2.31,2.31,0,0,1,41.58,6a2.78,2.78,0,0,1-2,.66H37.08V6.57h.09a.48.48,0,0,0,.32-.13.46.46,0,0,0,.13-.31V2.21a.37.37,0,0,0-.13-.29.54.54,0,0,0-.32-.11h-.09V1.74h2.54A2.78,2.78,0,0,1,41.58,2.4Zm-2,3.94a1.47,1.47,0,0,0,.87-.26A1.57,1.57,0,0,0,41,5.33a2.81,2.81,0,0,0,.19-1.06,3.41,3.41,0,0,0-.11-1,2.21,2.21,0,0,0-.33-.69A1.42,1.42,0,0,0,39.53,2h-.86V6.34Z" transform="translate(-1.26 -0.86)"/><path d="M42.7,6.57h.09a.44.44,0,0,0,.29-.11.36.36,0,0,0,.11-.26V2.88a.36.36,0,0,0-.11-.26.39.39,0,0,0-.29-.11H42.7V2.44h2v.07h-.08a.4.4,0,0,0-.28.1.38.38,0,0,0-.13.26V6.2a.38.38,0,0,0,.13.26.41.41,0,0,0,.28.11h.08v.07h-2Z" transform="translate(-1.26 -0.86)"/><path d="M48.42,6.64H45.13V6.57h.08a.37.37,0,0,0,.27-.11.35.35,0,0,0,.11-.26V2.87a.36.36,0,0,0-.38-.36h-.08V2.44h2.46a2,2,0,0,0,.41,0,1.19,1.19,0,0,0,.32-.07V3.45h-.07V3.38a.69.69,0,0,0-.17-.48.61.61,0,0,0-.47-.18h-1v1.7h.8a.58.58,0,0,0,.39-.16.58.58,0,0,0,.14-.39V3.82H48V5.3h-.07v0a.5.5,0,0,0-.24-.47.57.57,0,0,0-.28-.08H46.6V6.36h.84a1.17,1.17,0,0,0,.74-.27,1.61,1.61,0,0,0,.45-.74h.06Z" transform="translate(-1.26 -0.86)"/><path d="M51,6.57a.48.48,0,0,0,.32-.13.46.46,0,0,0,.13-.31V2.23a.42.42,0,0,0-.1-.27A.52.52,0,0,0,51,1.81h-.09V1.74h2.68a2.94,2.94,0,0,0,.57-.05,1.59,1.59,0,0,0,.27-.08V2.84h-.07V2.75A.63.63,0,0,0,54,2.14a.69.69,0,0,0-.36-.1H52.46v2h.93a.62.62,0,0,0,.42-.18A.61.61,0,0,0,54,3.47V3.41h.07V5H54V5a.57.57,0,0,0-.16-.42.58.58,0,0,0-.42-.18h-.94v2h.92a1.27,1.27,0,0,0,.86-.3,1.68,1.68,0,0,0,.51-.83h.07L54.5,6.64H50.87V6.57Z" transform="translate(-1.26 -0.86)"/><path d="M59.34,3A2,2,0,0,1,60,4.54a1.92,1.92,0,0,1-.64,1.54,2.58,2.58,0,0,1-1.76.56H55.21V6.57h.09a.41.41,0,0,0,.28-.11.47.47,0,0,0,.12-.27V2.87a.43.43,0,0,0-.13-.26.38.38,0,0,0-.27-.1h-.09V2.44h2.37A2.58,2.58,0,0,1,59.34,3ZM57.49,6.36a1.25,1.25,0,0,0,1-.48,2.1,2.1,0,0,0,.39-1.34,2.08,2.08,0,0,0-.39-1.34,1.23,1.23,0,0,0-1-.49H56.7V6.36Z" transform="translate(-1.26 -0.86)"/><path d="M60.37,6.57h.09a.41.41,0,0,0,.28-.11.34.34,0,0,0,.12-.26V2.88a.34.34,0,0,0-.12-.26.37.37,0,0,0-.28-.11h-.09V2.44h2v.07h-.08a.4.4,0,0,0-.28.1.35.35,0,0,0-.13.26V6.2a.35.35,0,0,0,.13.26.41.41,0,0,0,.28.11h.08v.07h-2Z" transform="translate(-1.26 -0.86)"/><path d="M66.65,3.43V3.37a.69.69,0,0,0-.17-.48A.69.69,0,0,0,66,2.71H65.2V6.2a.4.4,0,0,0,.12.26.39.39,0,0,0,.27.11h.07v.07H63.73V6.57h.07a.37.37,0,0,0,.27-.11.34.34,0,0,0,.12-.26V2.71h-.81a.69.69,0,0,0-.47.18.64.64,0,0,0-.17.48v.06h-.07V2.33L63,2.4l.41,0H66a2.35,2.35,0,0,0,.5,0l.23-.06v1.1Z" transform="translate(-1.26 -0.86)"/><path d="M71.8,6.57h.07v.07H70V6.57H70a.39.39,0,0,0,.27-.11.33.33,0,0,0,.11-.26V4.69H68.56V6.2a.42.42,0,0,0,.12.26.37.37,0,0,0,.27.11H69v.07H67.09V6.57h.08a.37.37,0,0,0,.27-.11.33.33,0,0,0,.11-.26V2.88a.33.33,0,0,0-.11-.26.33.33,0,0,0-.27-.11h-.08V2.44H69v.07H69a.36.36,0,0,0-.27.1.42.42,0,0,0-.12.26V4.41H70.4V2.88a.33.33,0,0,0-.19-.32A.32.32,0,0,0,70,2.51H70V2.44h1.92v.07H71.8a.36.36,0,0,0-.27.1.42.42,0,0,0-.12.27V6.2a.37.37,0,0,0,.19.32A.46.46,0,0,0,71.8,6.57Z" transform="translate(-1.26 -0.86)"/></svg>