<svg version="1" xmlns="http://www.w3.org/2000/svg" width="1440" height="1440" viewBox="0 0 1080.000000 1080.000000"><path d="M827 60.6c-17.1 5.5-59.1 15-75 16.9-2.5.3-6.1.7-8 1-1.9.3-6.9.7-11 1.1-4.1.3-10 .8-13 1.1-3 .2-124.3.6-269.5.8-145.2.2-265.2.4-266.6.4-2.6.1-2.7.3-2.5 6.1.1 3.2.4 6.1.7 6.4.2.3 6.6.6 14 .7 10.9.2 15.3.7 22 2.6 15 4.3 30 13.1 42.6 25 9.4 9 12.6 14.6 17.6 30.8l2.2 7v373c0 355.8-.1 373.3-1.8 379.5-6.4 23.3-24.1 44.8-45.2 54.9-13.4 6.5-20.7 7.9-40.1 8l-12 .1v13h671.5l1.2-5.8c.7-3.1 1.4-6.2 1.5-6.7.5-2.4 8.6-38.2 8.9-39.5.2-.8 1.3-5.8 2.5-11s2.4-10.6 2.6-12c.3-1.4 1-4.3 1.6-6.5.5-2.2 1.2-5 1.4-6.3.5-2.6 5.7-25.6 7.9-34.7.8-3.3 1.7-7.5 2-9.4.3-1.9.8-3.7 1-4.1.2-.4.7-2.2 1-4.1.3-1.9 3.9-18 8-35.9 13.4-58.8 19.5-87.1 19.1-87.8-.2-.4-3-.7-6.3-.7h-5.8l-3.3 9.5c-1.8 5.2-3.7 10.8-4.2 12.4-4.3 13.6-20.4 47.4-30.5 64-26.5 43.8-61.5 77.5-101.3 97.5-21.4 10.8-51.5 20-73.7 22.6-2.7.3-6.8.8-9 1-11.7 1.4-26.4 1.6-108 1.6H478l-2.5-.1V568.9l94 .4c101.7.4 96.8.1 114.5 5.8 32.3 10.3 58.4 37.4 68.2 70.9 1.5 5.3 4.9 24.7 4.6 26.9 0 .3 0 4.5.1 9.3l.1 8.8h13l-.2-149.8-.3-149.7h-6.2l-6.3-.1-.1 8.6c-.3 31.3-7.7 53.4-24.9 74.5-17.2 21-39.6 33.7-67.8 38.3-9.7 1.6-19.2 1.8-99.6 1.7h-88.9l-.1-187c-.1-102.9.2-187.7.5-188.5.6-1.3 13.8-1.5 111.1-1.4 60.6 0 113.7.4 117.8.8 31.4 3.1 59.7 15.7 79.9 35.6 24.7 24.2 35.2 53.8 35.4 99.7.1 11.4-.3 10.9 8.1 10.8h5l.1-111.5c0-61.3-.1-112.1-.3-112.8-.5-1.4-.5-1.4-6.2.4z"/></svg>